<svg width="108" height="108" viewBox="0 0 108 108" fill="none" xmlns="http://www.w3.org/2000/svg">
<g filter="url(#filter0_d_1_802)">
<path d="M4 50V100H54H104V50V0H54H4V50Z" fill="#007ACC"/>
<path d="M26.1132 50.3318L26.0815 54.427L32.5894 54.427H39.0974V72.9191V91.4111H43.7005H48.3037V72.9191L48.3037 54.427H54.8116H61.3196V50.4111C61.3196 48.1889 61.272 46.3318 61.2085 46.2841C61.1608 46.2207 53.2402 46.1889 43.637 46.2048L26.1609 46.2524L26.1132 50.3318Z" fill="white"/>
<path d="M84.6906 46.1362C87.2302 46.7711 89.1668 47.8981 90.9445 49.7393C91.8652 50.7235 93.2302 52.5171 93.3414 52.9457C93.3731 53.0727 89.0239 55.9933 86.389 57.6282C86.2937 57.6917 85.9128 57.279 85.4842 56.6441C84.1985 54.7711 82.8493 53.9616 80.7858 53.8187C77.754 53.6124 75.8017 55.1997 75.8175 57.8505C75.8175 58.6282 75.9287 59.0886 76.2461 59.7235C76.9128 61.1044 78.1509 61.9298 82.0398 63.6124C89.1985 66.6917 92.262 68.7235 94.1668 71.6124C96.2937 74.8346 96.7699 79.9774 95.3255 83.8028C93.7382 87.9616 89.8017 90.787 84.262 91.7235C82.5477 92.0251 78.4842 91.9774 76.6429 91.6441C72.6271 90.9298 68.8175 88.9457 66.4683 86.3425C65.5477 85.3266 63.7541 82.6759 63.8652 82.4854C63.9128 82.4219 64.3255 82.1679 64.7858 81.8981C65.2302 81.6441 66.9128 80.6759 68.5001 79.7552L71.3731 78.0885L71.9763 78.9774C72.8175 80.2631 74.6588 82.0251 75.7699 82.6124C78.9604 84.2949 83.3414 84.0568 85.5001 82.1203C86.4207 81.279 86.8017 80.406 86.8017 79.1203C86.8017 77.9616 86.6588 77.4536 86.0556 76.5806C85.2779 75.4695 83.6906 74.533 79.1826 72.5806C74.0239 70.3584 71.8017 68.9774 69.7699 66.787C68.5953 65.5171 67.4842 63.4854 67.0239 61.787C66.6429 60.3743 66.5477 56.8346 66.8493 55.406C67.9128 50.4219 71.6747 46.9457 77.1033 45.9139C78.8652 45.5806 82.9604 45.7076 84.6906 46.1362Z" fill="white"/>
</g>
<defs>
<filter id="filter0_d_1_802" x="0" y="0" width="108" height="108" filterUnits="userSpaceOnUse" color-interpolation-filters="sRGB">
<feFlood flood-opacity="0" result="BackgroundImageFix"/>
<feColorMatrix in="SourceAlpha" type="matrix" values="0 0 0 0 0 0 0 0 0 0 0 0 0 0 0 0 0 0 127 0" result="hardAlpha"/>
<feOffset dy="4"/>
<feGaussianBlur stdDeviation="2"/>
<feComposite in2="hardAlpha" operator="out"/>
<feColorMatrix type="matrix" values="0 0 0 0 0 0 0 0 0 0 0 0 0 0 0 0 0 0 0.25 0"/>
<feBlend mode="normal" in2="BackgroundImageFix" result="effect1_dropShadow_1_802"/>
<feBlend mode="normal" in="SourceGraphic" in2="effect1_dropShadow_1_802" result="shape"/>
</filter>
</defs>
</svg>
